<?xml version="1.0" ?>

<!-- Uploaded to: SVG Repo, www.svgrepo.com, Generator: SVG Repo Mixer Tools -->
<svg width="800px" height="800px" viewBox="0 -10.66 268.82 268.82" xmlns="http://www.w3.org/2000/svg">

<defs>

<style>.cls-1{fill:#FFD700;}.cls-2{fill:#8a7501;}.cls-3,.cls-5{fill:#ffffff;}.cls-4{fill:#0057B8;}.cls-5{opacity:0.7;}.cls-6{fill:#908152;}.cls-7,.cls-8{fill:#d9f0ff;}.cls-7{opacity:0.5;}</style>

</defs>

<title/>

<g data-name="Layer 2" id="Layer_2">

<g data-name="Layer 1" id="Layer_1-2">

<path class="cls-1" d="M140.72,225.91c0,.33,0,.66,0,1a20,20,0,0,1-40,0c0-.32,0-.64,0-1s0-.82,0-1.23h0a20,20,0,0,1,40,0h0Q140.72,225.29,140.72,225.91Z"/>

<path class="cls-1" d="M219.4,225.91c0,.33,0,.66,0,1a20,20,0,0,1-40,0c0-.32,0-.64,0-1s0-.82,0-1.23h0a20,20,0,0,1,40,0h0Q219.4,225.29,219.4,225.91Z"/>

<path class="cls-2" d="M180.35,219a19.9,19.9,0,0,1,4.82-12.07h30.38A19.9,19.9,0,0,1,220.38,219Z"/>

<path class="cls-2" d="M101.67,219a19.9,19.9,0,0,1,4.82-12.07h30.38A19.9,19.9,0,0,1,141.69,219Z"/>

<path class="cls-3" d="M58,138.63a2.38,2.38,0,0,1-2.38-2.38v-10a2.38,2.38,0,1,1,4.76,0v10A2.38,2.38,0,0,1,58,138.63Z"/>

<path class="cls-3" d="M58,120.16a2.38,2.38,0,0,1-2.38-2.38v-5.43a2.38,2.38,0,1,1,4.76,0v5.43A2.38,2.38,0,0,1,58,120.16Z"/>

<path class="cls-1" d="M266.17,54,251.52,194.74a11.1,11.1,0,0,1-11,10H80.61L35.47,54Z"/>

<path class="cls-4" d="M120.68,247.49a24,24,0,1,1,24-24A24.06,24.06,0,0,1,120.68,247.49Zm0-40.07a16,16,0,1,0,16,16A16.06,16.06,0,0,0,120.68,207.41Z"/>

<path class="cls-4" d="M199.37,247.49a24,24,0,1,1,24-24A24.06,24.06,0,0,1,199.37,247.49Zm0-40.07a16,16,0,1,0,16,16A16.06,16.06,0,0,0,199.37,207.41Z"/>

<path class="cls-4" d="M33.51,56.4H4a4,4,0,0,1,0-8H33.51a4,4,0,0,1,0,8Z"/>

<path class="cls-4" d="M39.66,74.23H16.29a4,4,0,0,1,0-8H39.66a4,4,0,0,1,0,8Z"/>

<path class="cls-4" d="M43.34,92.06H26.13a4,4,0,0,1,0-8H43.34a4,4,0,1,1,0,8Z"/>

<path class="cls-5" d="M73.14,116.27a4,4,0,0,1-3.86-3l-3.38-12.73a4,4,0,1,1,7.73-2.05L77,111.24a4,4,0,0,1-3.87,5Z"/>

<path class="cls-5" d="M64.92,87.85a4,4,0,0,1-3.86-3L59.23,78A4,4,0,1,1,67,75.93l1.83,6.89a4,4,0,0,1-3.87,5Z"/>

<rect class="cls-2" height="10.25" width="171" x="77.91" y="189.21"/>

<path class="cls-4" d="M239.41,207.46H89.76a16.19,16.19,0,0,1-15.61-11.62L31.63,53.9,23.52,26.49a4,4,0,0,1,7.67-2.27l8.1,27.39L81.82,193.55a8.35,8.35,0,0,0,7.95,5.91H239.41a8.27,8.27,0,0,0,8.25-7.44L252,151.91a4,4,0,0,1,8,.87l-4.38,40.1A16.25,16.25,0,0,1,239.41,207.46Z"/>

<path class="cls-4" d="M260.64,107.91l-.44,0a4,4,0,0,1-3.54-4.41l4.12-37.59a8.29,8.29,0,0,0-8.25-9.13H71.22a4,4,0,0,1,0-8H252.53a16.29,16.29,0,0,1,16.21,18l-4.12,37.61A4,4,0,0,1,260.64,107.91Z"/>

<circle class="cls-5" cx="77.91" cy="125.94" r="4"/>

<path class="cls-4" d="M257.22,141.2h-.33a4,4,0,0,1-3.66-4.31l.59-7.28a4,4,0,0,1,8,.65l-.59,7.28A4,4,0,0,1,257.22,141.2Z"/>

<path class="cls-4" d="M258.84,121.26h-.33a4,4,0,0,1-3.67-4.31l0-.3a4,4,0,0,1,8,.64l0,.3A4,4,0,0,1,258.84,121.26Z"/>

<ellipse class="cls-6" cx="164.7" cy="60.36" rx="45.29" ry="45.36"/>

<circle class="cls-3" cx="165.06" cy="49.02" r="45.36"/>

<path class="cls-7" d="M211.16,48.67a45.36,45.36,0,1,1-88.39-14.41c3.72,21,23,39.82,43,39.82s38.28-15.17,43-39.82A45.12,45.12,0,0,1,211.16,48.67Z"/>

<path class="cls-8" d="M210.77,48A45.36,45.36,0,1,1,120,48a45.9,45.9,0,0,1,.38-5.91,45.37,45.37,0,0,0,90,0A45.93,45.93,0,0,1,210.77,48Z"/>

<path class="cls-4" d="M164.83,98.73a49.36,49.36,0,1,1,49.36-49.36A49.42,49.42,0,0,1,164.83,98.73Zm0-90.73a41.36,41.36,0,1,0,41.36,41.36A41.41,41.41,0,0,0,164.83,8Z"/>

<path class="cls-4" d="M144.45,44.41V36.63q0-3.83,2.14-5.61a8.85,8.85,0,0,1,5.81-1.79A9,9,0,0,1,158.23,31q2.19,1.78,2.2,5.61v7.77q0,3.83-2.19,5.61a9,9,0,0,1-5.83,1.79A8.84,8.84,0,0,1,146.61,50Q144.46,48.24,144.45,44.41Zm5.26,0q0,2.63,2.71,2.62t2.76-2.63V36.62q0-2.63-2.77-2.62t-2.71,2.63Zm2.9,24.47a2.36,2.36,0,0,1,.27-1l18.83-39.5A2.29,2.29,0,0,1,174,27a3.45,3.45,0,0,1,2.22.82,2.57,2.57,0,0,1,1,2.08,2.35,2.35,0,0,1-.21,1L158.11,70.4a2.43,2.43,0,0,1-2.42,1.37,2.93,2.93,0,0,1-2.2-.9A2.81,2.81,0,0,1,152.61,68.87ZM169.22,62V54.23q0-3.83,2.14-5.61a8.84,8.84,0,0,1,5.81-1.79A9,9,0,0,1,183,48.6q2.19,1.78,2.2,5.61V62q0,3.83-2.19,5.61a9,9,0,0,1-5.83,1.79,8.84,8.84,0,0,1-5.82-1.77Q169.23,65.84,169.22,62Zm5.26,0q0,2.63,2.71,2.62T180,62V54.22q0-2.63-2.77-2.62t-2.71,2.63Z"/>

</g>

</g>

</svg>